<svg version="1.1" id="Layer_1" xmlns="http://www.w3.org/2000/svg" xmlns:xlink="http://www.w3.org/1999/xlink" x="0px" y="0px"
	 width="50%" height= "50%" viewBox="25 25 100 100" enable-background="new 25 25 125 125" xml:space="preserve">
<path fill="#EB1101" opacity="1.000000" stroke="none" 
	d="
M1.000000,135.000000 
	C1.000000,96.312439 1.000000,57.624878 1.285660,18.772671 
	C5.950935,11.896295 10.417261,5.316916 19.189920,3.739488 
	C19.610544,3.663855 19.736710,1.950624 20.000000,1.000000 
	C57.020893,1.000000 94.041786,1.000000 131.251480,1.322837 
	C132.471054,2.512024 133.365326,3.774587 134.553543,4.183951 
	C147.642502,8.693369 151.632401,19.412146 151.843506,31.514383 
	C152.334000,59.630623 152.043396,87.761391 151.954590,115.885910 
	C151.940628,120.311188 151.595398,124.774963 150.937881,129.150986 
	C149.207016,140.670547 139.362167,148.998276 127.794891,148.999893 
	C93.013336,149.004730 58.231602,149.062729 23.450357,148.958725 
	C15.148189,148.933914 8.908505,144.876251 4.382330,137.961639 
	C3.591774,136.753922 2.144153,135.976273 1.000000,135.000000 
M70.991745,75.586334 
	C72.542496,72.057678 74.093239,68.529022 76.072273,64.025818 
	C77.459686,67.047020 78.324074,68.821442 79.098984,70.634117 
	C84.460808,83.176613 89.882851,95.694443 95.098511,108.297592 
	C96.425133,111.503250 98.236481,113.084053 101.816826,112.911552 
	C106.304298,112.695335 110.812340,112.769386 115.307259,112.884148 
	C119.475922,112.990570 120.248718,111.295143 118.690063,107.640686 
	C108.837990,84.541412 99.144325,61.373749 89.099915,38.358913 
	C88.282852,36.486755 85.355110,34.717266 83.198418,34.419598 
	C78.784454,33.810371 74.218704,34.411579 69.732758,34.179646 
	C65.843140,33.978546 63.601395,35.472034 62.163944,39.126957 
	C58.877609,47.482960 55.284100,55.718166 51.814835,64.002213 
	C45.775833,78.422386 39.708500,92.830795 33.713303,107.269150 
	C31.774092,111.939392 32.356945,112.765762 37.437641,112.777039 
	C51.597530,112.808479 65.757576,112.809341 79.917465,112.777840 
	C85.524338,112.765366 86.071373,111.848152 83.789154,106.594513 
	C82.662994,104.002113 81.385635,101.469788 80.376167,98.833885 
	C79.335037,96.115303 77.609734,95.031059 74.652733,95.221985 
	C70.963310,95.460197 67.246811,95.279190 62.770824,95.279190 
	C65.717636,88.183395 68.190628,82.228554 70.991745,75.586334 
z"/>
<path fill="#000000" opacity="1.000000" stroke="none" 
	d="
M1.000000,135.471191 
	C2.144153,135.976273 3.591774,136.753922 4.382330,137.961639 
	C8.908505,144.876251 15.148189,148.933914 23.450357,148.958725 
	C58.231602,149.062729 93.013336,149.004730 127.794891,148.999893 
	C139.362167,148.998276 149.207016,140.670547 150.937881,129.150986 
	C151.595398,124.774963 151.940628,120.311188 151.954590,115.885910 
	C152.043396,87.761391 152.334000,59.630623 151.843506,31.514383 
	C151.632401,19.412146 147.642502,8.693369 134.553543,4.183951 
	C133.365326,3.774587 132.471054,2.512024 131.720139,1.322837 
	C139.656769,1.000000 147.313538,1.000000 154.977722,0.999997 
	C154.985153,50.925533 154.985153,100.851074 154.985153,150.888306 
	C103.666832,150.888306 52.333454,150.888306 1.000000,150.888306 
	C1.000000,145.929398 1.000000,140.935898 1.000000,135.471191 
z"/>
<path fill="#000000" opacity="1.000000" stroke="none" 
	d="
M19.530624,1.000000 
	C19.736710,1.950624 19.610544,3.663855 19.189920,3.739488 
	C10.417261,5.316916 5.950935,11.896295 1.285660,18.304014 
	C1.000000,12.403369 1.000000,6.806738 1.000000,1.000000 
	C7.019274,1.000000 13.040261,1.000000 19.530624,1.000000 
z"/>
<path fill="#FEF9F8" opacity="1.000000" stroke="none" 
	d="
M70.827682,75.930023 
	C68.190628,82.228554 65.717636,88.183395 62.770824,95.279190 
	C67.246811,95.279190 70.963310,95.460197 74.652733,95.221985 
	C77.609734,95.031059 79.335037,96.115303 80.376167,98.833885 
	C81.385635,101.469788 82.662994,104.002113 83.789154,106.594513 
	C86.071373,111.848152 85.524338,112.765366 79.917465,112.777840 
	C65.757576,112.809341 51.597530,112.808479 37.437641,112.777039 
	C32.356945,112.765762 31.774092,111.939392 33.713303,107.269150 
	C39.708500,92.830795 45.775833,78.422386 51.814835,64.002213 
	C55.284100,55.718166 58.877609,47.482960 62.163944,39.126957 
	C63.601395,35.472034 65.843140,33.978546 69.732758,34.179646 
	C74.218704,34.411579 78.784454,33.810371 83.198418,34.419598 
	C85.355110,34.717266 88.282852,36.486755 89.099915,38.358913 
	C99.144325,61.373749 108.837990,84.541412 118.690063,107.640686 
	C120.248718,111.295143 119.475922,112.990570 115.307259,112.884148 
	C110.812340,112.769386 106.304298,112.695335 101.816826,112.911552 
	C98.236481,113.084053 96.425133,111.503250 95.098511,108.297592 
	C89.882851,95.694443 84.460808,83.176613 79.098984,70.634117 
	C78.324074,68.821442 77.459686,67.047020 76.072273,64.025818 
	C74.093239,68.529022 72.542496,72.057678 70.827682,75.930023 
z"/>
</svg>
